<svg width="766" height="326" viewBox="0 0 766 326" fill="none" xmlns="http://www.w3.org/2000/svg">
<rect opacity="0.4" x="288" y="120" width="190" height="87" rx="20" fill="#FF5E52"/>
<path opacity="0.4" d="M351.574 158.636C351.446 157.557 350.928 156.719 350.018 156.122C349.109 155.526 347.994 155.227 346.673 155.227C345.707 155.227 344.862 155.384 344.138 155.696C343.42 156.009 342.859 156.438 342.455 156.985C342.057 157.532 341.858 158.153 341.858 158.849C341.858 159.432 341.996 159.933 342.273 160.352C342.558 160.763 342.92 161.108 343.36 161.385C343.8 161.655 344.262 161.879 344.745 162.056C345.228 162.227 345.672 162.365 346.077 162.472L348.293 163.068C348.861 163.217 349.493 163.423 350.189 163.686C350.892 163.949 351.563 164.308 352.202 164.762C352.849 165.21 353.381 165.785 353.8 166.488C354.219 167.191 354.429 168.054 354.429 169.077C354.429 170.256 354.12 171.321 353.502 172.273C352.891 173.224 351.996 173.981 350.817 174.542C349.646 175.103 348.222 175.384 346.545 175.384C344.983 175.384 343.63 175.131 342.487 174.627C341.35 174.123 340.455 173.42 339.802 172.518C339.156 171.616 338.79 170.568 338.705 169.375H341.432C341.503 170.199 341.78 170.881 342.263 171.42C342.753 171.953 343.371 172.351 344.116 172.614C344.869 172.869 345.679 172.997 346.545 172.997C347.554 172.997 348.46 172.834 349.262 172.507C350.065 172.173 350.7 171.712 351.169 171.122C351.638 170.526 351.872 169.83 351.872 169.034C351.872 168.31 351.67 167.72 351.265 167.266C350.86 166.811 350.327 166.442 349.667 166.158C349.006 165.874 348.293 165.625 347.526 165.412L344.841 164.645C343.136 164.155 341.787 163.455 340.793 162.546C339.798 161.637 339.301 160.447 339.301 158.977C339.301 157.756 339.631 156.69 340.292 155.781C340.96 154.865 341.854 154.155 342.977 153.651C344.106 153.139 345.366 152.884 346.759 152.884C348.165 152.884 349.415 153.136 350.509 153.64C351.602 154.137 352.469 154.819 353.108 155.685C353.754 156.552 354.095 157.536 354.131 158.636H351.574ZM357.58 155.526V153.182H373.943V155.526H367.083V175H364.441V155.526H357.58ZM376.367 175H373.597L381.608 153.182H384.336L392.347 175H389.577L383.057 156.634H382.887L376.367 175ZM377.39 166.477H388.555V168.821H377.39V166.477ZM395.746 175V153.182H403.118C404.822 153.182 406.221 153.473 407.315 154.055C408.409 154.631 409.219 155.423 409.744 156.431C410.27 157.44 410.532 158.587 410.532 159.872C410.532 161.158 410.27 162.298 409.744 163.292C409.219 164.286 408.412 165.067 407.326 165.636C406.239 166.197 404.851 166.477 403.16 166.477H397.194V164.091H403.075C404.24 164.091 405.177 163.92 405.888 163.58C406.605 163.239 407.123 162.756 407.443 162.131C407.77 161.499 407.933 160.746 407.933 159.872C407.933 158.999 407.77 158.235 407.443 157.582C407.116 156.928 406.594 156.424 405.877 156.069C405.16 155.707 404.211 155.526 403.032 155.526H398.388V175H395.746ZM406.015 165.199L411.385 175H408.317L403.032 165.199H406.015ZM413.742 155.526V153.182H430.105V155.526H423.245V175H420.603V155.526H413.742Z" fill="white"/>
<path d="M661 0H704.5C738.466 0 766 27.5345 766 61.5V265C766 298.689 738.689 326 705 326H661V0Z" fill="#FF5E52"/>
<path d="M105 0H61.5C27.5345 0 0 27.5345 0 61.5V265C0 298.689 27.3106 326 61 326H105V0Z" fill="#01BAE1"/>
<rect x="105" width="556" height="326" fill="#2A3031"/>
<rect x="122" y="12" width="522" height="303" rx="9" fill="black"/>
<rect x="160" y="38" width="445" height="250" fill="#27282C"/>
<rect x="675" y="24" width="6" height="18" fill="black"/>
<rect x="687.009" y="29.9988" width="6" height="18.0092" transform="rotate(89.928 687.009 29.9988)" fill="black"/>
<rect x="77" y="30" width="19" height="7" fill="black"/>
<circle cx="710" cy="59" r="12" fill="black"/>
<circle cx="710" cy="107" r="12" fill="black"/>
<circle cx="736" cy="83" r="12" fill="black"/>
<circle cx="692" cy="235" r="13" fill="black"/>
<circle cx="684" cy="83" r="12" fill="black"/>
<circle cx="54" cy="150" r="12" fill="black"/>
<circle cx="54" cy="198" r="12" fill="black"/>
<circle cx="80" cy="174" r="12" fill="black"/>
<circle cx="28" cy="174" r="12" fill="black"/>
<circle cx="709.5" cy="173.5" r="25.5" fill="black"/>
<circle cx="54.5" cy="82.5" r="25.5" fill="black"/>
<rect x="61" y="223" width="22" height="22" fill="black"/>
</svg>
